<?xml version="1.0" encoding="UTF-8" standalone="no"?>
<!-- Created with Inkscape (http://www.inkscape.org/) -->

<svg
   xmlns:dc="http://purl.org/dc/elements/1.1/"
   xmlns:cc="http://creativecommons.org/ns#"
   xmlns:rdf="http://www.w3.org/1999/02/22-rdf-syntax-ns#"
   xmlns:svg="http://www.w3.org/2000/svg"
   xmlns="http://www.w3.org/2000/svg"
   xmlns:sodipodi="http://sodipodi.sourceforge.net/DTD/sodipodi-0.dtd"
   xmlns:inkscape="http://www.inkscape.org/namespaces/inkscape"
   width="744.09448819"
   height="1052.3622047"
   id="svg3799"
   version="1.1"
   inkscape:version="0.48.3.1 r9886"
   sodipodi:docname="streetlight2.png">
  <defs
     id="defs3801" />
  <sodipodi:namedview
     id="base"
     pagecolor="#ffffff"
     bordercolor="#666666"
     borderopacity="1.0"
     inkscape:pageopacity="0.0"
     inkscape:pageshadow="2"
     inkscape:zoom="0.35"
     inkscape:cx="375"
     inkscape:cy="520"
     inkscape:document-units="px"
     inkscape:current-layer="layer1"
     showgrid="false"
     inkscape:window-width="1280"
     inkscape:window-height="948"
     inkscape:window-x="0"
     inkscape:window-y="24"
     inkscape:window-maximized="1" />
  <metadata
     id="metadata3804">
    <rdf:RDF>
      <cc:Work
         rdf:about="">
        <dc:format>image/svg+xml</dc:format>
        <dc:type
           rdf:resource="http://purl.org/dc/dcmitype/StillImage" />
        <dc:title></dc:title>
      </cc:Work>
    </rdf:RDF>
  </metadata>
  <g
     inkscape:label="Layer 1"
     inkscape:groupmode="layer"
     id="layer1">
    <path
       sodipodi:type="arc"
       style="fill:#000000;fill-opacity:1;stroke:#008000"
       id="path3830"
       sodipodi:cx="-575.71429"
       sodipodi:cy="118.07647"
       sodipodi:rx="190"
       sodipodi:ry="102.85714"
       d="m -385.71429,118.07647 a 190,102.85714 0 1 1 -380,0 190,102.85714 0 1 1 380,0 z" />
    <g
       id="g3834"
       transform="matrix(-1.2705296,0,0,1,769.23941,-71.428572)">
      <path
         transform="matrix(-0.03767701,-4.3370206,0.99928996,-0.16352208,101.6877,-3804.6138)"
         sodipodi:end="3.1969541"
         sodipodi:start="0"
         d="m -954.28577,253.79076 c 0,37.08197 -35.81722,67.14284 -80.00003,67.14284 -44.1827,0 -80,-30.06087 -80,-67.14284 0,-1.23912 0.041,-2.47801 0.1226,-3.71523 l 79.8774,3.71523 z"
         sodipodi:ry="67.142845"
         sodipodi:rx="80"
         sodipodi:cy="253.79076"
         sodipodi:cx="-1034.2858"
         id="path3828"
         style="fill:#000000;fill-opacity:1;stroke:#008000"
         sodipodi:type="arc" />
      <path
         transform="matrix(0.92353455,0.38351524,-0.38351524,0.92353455,139.44972,-88.976445)"
         d="m 422.85715,305.21933 c 0,35.50402 -58.20299,64.28571 -130,64.28571 -71.79702,0 -130,-28.78169 -130,-64.28571 0,-35.50402 58.20298,-64.28571 130,-64.28571 71.79701,0 130,28.78169 130,64.28571 z"
         sodipodi:ry="64.285713"
         sodipodi:rx="130"
         sodipodi:cy="305.21933"
         sodipodi:cx="292.85715"
         id="path3826"
         style="fill:#ffff00;fill-opacity:1;stroke:#008000"
         sodipodi:type="arc" />
      <path
         sodipodi:type="arc"
         style="fill:#000000;fill-opacity:1;stroke:#008000"
         id="path3832"
         sodipodi:cx="292.85715"
         sodipodi:cy="305.21933"
         sodipodi:rx="130"
         sodipodi:ry="64.285713"
         d="m 422.85715,305.21933 c 0,35.50402 -58.20299,64.28571 -130,64.28571 -71.79702,0 -130,-28.78169 -130,-64.28571 0,-35.50402 58.20298,-64.28571 130,-64.28571 71.79701,0 130,28.78169 130,64.28571 z"
         transform="matrix(0.92353455,0.38351524,-0.38351524,0.92353455,139.44972,-114.97645)" />
    </g>
  </g>
</svg>
